<svg width="129" height="129" viewBox="0 0 129 129" fill="none" xmlns="http://www.w3.org/2000/svg">
<path d="M77.4 25.8H90.3V38.7H122.55C124.261 38.7 125.901 39.3796 127.111 40.5892C128.32 41.7988 129 43.4394 129 45.15V93.525L90.3 70.95L90.5322 122.95L104.871 109.082L116.364 129H45.15C43.4394 129 41.7988 128.32 40.5892 127.111C39.3796 125.901 38.7 124.261 38.7 122.55V90.3H25.8V77.4H38.7V45.15C38.7 43.4394 39.3796 41.7988 40.5892 40.5892C41.7988 39.3796 43.4394 38.7 45.15 38.7H77.4V25.8ZM129 98.9301V122.55C129.001 123.222 128.896 123.89 128.69 124.53L116.048 102.639L129 98.9301ZM12.9 77.4V90.3H0V77.4H12.9ZM12.9 51.6V64.5H0V51.6H12.9ZM12.9 25.8V38.7H0V25.8H12.9ZM12.9 0V12.9H0V0H12.9ZM38.7 0V12.9H25.8V0H38.7ZM64.5 0V12.9H51.6V0H64.5ZM90.3 0V12.9H77.4V0H90.3Z" fill="#18211F"/>
</svg>
