<svg width="1514" height="794" viewBox="0 0 1514 794" fill="none" xmlns="http://www.w3.org/2000/svg">
<g opacity="0.42">
<rect x="1513" y="793.001" width="72" height="72" transform="rotate(180 1513 793.001)" stroke="white" stroke-opacity="0.06" stroke-width="1.44"/>
<rect x="1441" y="793.001" width="72" height="72" transform="rotate(180 1441 793.001)" stroke="white" stroke-opacity="0.06" stroke-width="1.44"/>
<rect x="1369" y="793.001" width="72" height="72" transform="rotate(180 1369 793.001)" stroke="white" stroke-opacity="0.06" stroke-width="1.44"/>
<rect x="1297" y="793.001" width="72" height="72" transform="rotate(180 1297 793.001)" stroke="white" stroke-opacity="0.06" stroke-width="1.44"/>
<rect x="1225" y="793.001" width="72" height="72" transform="rotate(180 1225 793.001)" stroke="white" stroke-opacity="0.06" stroke-width="1.44"/>
<rect x="1153" y="793.001" width="72" height="72" transform="rotate(180 1153 793.001)" stroke="white" stroke-opacity="0.06" stroke-width="1.44"/>
<rect x="1081" y="793.001" width="72" height="72" transform="rotate(180 1081 793.001)" stroke="white" stroke-opacity="0.06" stroke-width="1.44"/>
<rect x="1009" y="793.001" width="72" height="72" transform="rotate(180 1009 793.001)" stroke="white" stroke-opacity="0.06" stroke-width="1.44"/>
<rect x="937" y="793.001" width="72" height="72" transform="rotate(180 937 793.001)" stroke="white" stroke-opacity="0.06" stroke-width="1.44"/>
<rect x="865" y="793.001" width="72" height="72" transform="rotate(180 865 793.001)" stroke="white" stroke-opacity="0.06" stroke-width="1.44"/>
<rect x="793" y="793.001" width="72" height="72" transform="rotate(180 793 793.001)" stroke="white" stroke-opacity="0.06" stroke-width="1.44"/>
<rect x="721" y="793.001" width="72" height="72" transform="rotate(180 721 793.001)" stroke="white" stroke-opacity="0.06" stroke-width="1.44"/>
<rect x="649" y="793.001" width="72" height="72" transform="rotate(180 649 793.001)" stroke="white" stroke-opacity="0.06" stroke-width="1.44"/>
<rect x="577" y="793.001" width="72" height="72" transform="rotate(180 577 793.001)" stroke="white" stroke-opacity="0.06" stroke-width="1.44"/>
<rect x="505" y="793.001" width="72" height="72" transform="rotate(180 505 793.001)" stroke="white" stroke-opacity="0.06" stroke-width="1.44"/>
<rect x="433" y="793.001" width="72" height="72" transform="rotate(180 433 793.001)" stroke="white" stroke-opacity="0.06" stroke-width="1.44"/>
<rect x="361" y="793.001" width="72" height="72" transform="rotate(180 361 793.001)" stroke="white" stroke-opacity="0.06" stroke-width="1.44"/>
<rect x="289" y="793.001" width="72" height="72" transform="rotate(180 289 793.001)" stroke="white" stroke-opacity="0.06" stroke-width="1.44"/>
<rect x="217" y="793.001" width="72" height="72" transform="rotate(180 217 793.001)" stroke="white" stroke-opacity="0.06" stroke-width="1.44"/>
<rect x="145" y="793.001" width="72" height="72" transform="rotate(180 145 793.001)" stroke="white" stroke-opacity="0.06" stroke-width="1.44"/>
<rect x="73" y="793.001" width="72" height="72" transform="rotate(180 73 793.001)" stroke="white" stroke-opacity="0.06" stroke-width="1.44"/>
<rect x="1513" y="721.004" width="72" height="72" transform="rotate(180 1513 721.004)" stroke="white" stroke-opacity="0.06" stroke-width="1.44"/>
<rect x="1441" y="721.004" width="72" height="72" transform="rotate(180 1441 721.004)" stroke="white" stroke-opacity="0.06" stroke-width="1.44"/>
<rect x="1369" y="721.004" width="72" height="72" transform="rotate(180 1369 721.004)" fill="white" fill-opacity="0.05" stroke="white" stroke-opacity="0.06" stroke-width="1.44"/>
<rect x="1297" y="721.004" width="72" height="72" transform="rotate(180 1297 721.004)" stroke="white" stroke-opacity="0.06" stroke-width="1.44"/>
<rect x="1225" y="721.004" width="72" height="72" transform="rotate(180 1225 721.004)" stroke="white" stroke-opacity="0.06" stroke-width="1.44"/>
<rect x="1153" y="721.004" width="72" height="72" transform="rotate(180 1153 721.004)" stroke="white" stroke-opacity="0.06" stroke-width="1.44"/>
<rect x="1081" y="721.004" width="72" height="72" transform="rotate(180 1081 721.004)" stroke="white" stroke-opacity="0.06" stroke-width="1.44"/>
<rect x="1009" y="721.004" width="72" height="72" transform="rotate(180 1009 721.004)" stroke="white" stroke-opacity="0.06" stroke-width="1.44"/>
<rect x="937" y="721.004" width="72" height="72" transform="rotate(180 937 721.004)" stroke="white" stroke-opacity="0.06" stroke-width="1.44"/>
<rect x="865" y="721.004" width="72" height="72" transform="rotate(180 865 721.004)" fill="white" fill-opacity="0.05" stroke="white" stroke-opacity="0.06" stroke-width="1.44"/>
<rect x="793" y="721.004" width="72" height="72" transform="rotate(180 793 721.004)" stroke="white" stroke-opacity="0.06" stroke-width="1.44"/>
<rect x="721" y="721.004" width="72" height="72" transform="rotate(180 721 721.004)" stroke="white" stroke-opacity="0.06" stroke-width="1.44"/>
<rect x="649" y="721.004" width="72" height="72" transform="rotate(180 649 721.004)" stroke="white" stroke-opacity="0.06" stroke-width="1.44"/>
<rect x="577" y="721.004" width="72" height="72" transform="rotate(180 577 721.004)" stroke="white" stroke-opacity="0.06" stroke-width="1.44"/>
<rect x="505" y="721.004" width="72" height="72" transform="rotate(180 505 721.004)" stroke="white" stroke-opacity="0.06" stroke-width="1.44"/>
<rect x="433" y="721.004" width="72" height="72" transform="rotate(180 433 721.004)" stroke="white" stroke-opacity="0.06" stroke-width="1.44"/>
<rect x="361" y="721.004" width="72" height="72" transform="rotate(180 361 721.004)" stroke="white" stroke-opacity="0.06" stroke-width="1.44"/>
<rect x="289" y="721.004" width="72" height="72" transform="rotate(180 289 721.004)" stroke="white" stroke-opacity="0.06" stroke-width="1.44"/>
<rect x="217" y="721.004" width="72" height="72" transform="rotate(180 217 721.004)" stroke="white" stroke-opacity="0.06" stroke-width="1.44"/>
<rect x="145" y="721.004" width="72" height="72" transform="rotate(180 145 721.004)" stroke="white" stroke-opacity="0.06" stroke-width="1.44"/>
<rect x="73" y="721.004" width="72" height="72" transform="rotate(180 73 721.004)" stroke="white" stroke-opacity="0.06" stroke-width="1.44"/>
<rect x="1513" y="649.001" width="72" height="72" transform="rotate(180 1513 649.001)" stroke="white" stroke-opacity="0.06" stroke-width="1.44"/>
<rect x="1441" y="649.001" width="72" height="72" transform="rotate(180 1441 649.001)" stroke="white" stroke-opacity="0.06" stroke-width="1.44"/>
<rect x="1369" y="649.001" width="72" height="72" transform="rotate(180 1369 649.001)" stroke="white" stroke-opacity="0.06" stroke-width="1.44"/>
<rect x="1297" y="649.001" width="72" height="72" transform="rotate(180 1297 649.001)" stroke="white" stroke-opacity="0.06" stroke-width="1.44"/>
<rect x="1225" y="649.001" width="72" height="72" transform="rotate(180 1225 649.001)" stroke="white" stroke-opacity="0.06" stroke-width="1.44"/>
<rect x="1153" y="649.001" width="72" height="72" transform="rotate(180 1153 649.001)" stroke="white" stroke-opacity="0.06" stroke-width="1.44"/>
<rect x="1081" y="649.001" width="72" height="72" transform="rotate(180 1081 649.001)" stroke="white" stroke-opacity="0.06" stroke-width="1.44"/>
<rect x="1009" y="649.001" width="72" height="72" transform="rotate(180 1009 649.001)" stroke="white" stroke-opacity="0.06" stroke-width="1.44"/>
<rect x="937" y="649.001" width="72" height="72" transform="rotate(180 937 649.001)" stroke="white" stroke-opacity="0.06" stroke-width="1.44"/>
<rect x="865" y="649.001" width="72" height="72" transform="rotate(180 865 649.001)" stroke="white" stroke-opacity="0.06" stroke-width="1.44"/>
<rect x="793" y="649.001" width="72" height="72" transform="rotate(180 793 649.001)" stroke="white" stroke-opacity="0.06" stroke-width="1.44"/>
<rect x="721" y="649.001" width="72" height="72" transform="rotate(180 721 649.001)" stroke="white" stroke-opacity="0.06" stroke-width="1.44"/>
<rect x="649" y="649.001" width="72" height="72" transform="rotate(180 649 649.001)" stroke="white" stroke-opacity="0.06" stroke-width="1.44"/>
<rect x="577" y="649.001" width="72" height="72" transform="rotate(180 577 649.001)" stroke="white" stroke-opacity="0.06" stroke-width="1.44"/>
<rect x="505" y="649.001" width="72" height="72" transform="rotate(180 505 649.001)" stroke="white" stroke-opacity="0.06" stroke-width="1.44"/>
<rect x="433" y="649.001" width="72" height="72" transform="rotate(180 433 649.001)" stroke="white" stroke-opacity="0.06" stroke-width="1.44"/>
<rect x="361" y="649.001" width="72" height="72" transform="rotate(180 361 649.001)" fill="white" fill-opacity="0.05" stroke="white" stroke-opacity="0.06" stroke-width="1.44"/>
<rect x="289" y="649.001" width="72" height="72" transform="rotate(180 289 649.001)" stroke="white" stroke-opacity="0.06" stroke-width="1.44"/>
<rect x="217" y="649.001" width="72" height="72" transform="rotate(180 217 649.001)" stroke="white" stroke-opacity="0.06" stroke-width="1.44"/>
<rect x="145" y="649.001" width="72" height="72" transform="rotate(180 145 649.001)" stroke="white" stroke-opacity="0.06" stroke-width="1.44"/>
<rect x="73" y="649.001" width="72" height="72" transform="rotate(180 73 649.001)" stroke="white" stroke-opacity="0.06" stroke-width="1.44"/>
<rect x="1513" y="577.004" width="72" height="72" transform="rotate(180 1513 577.004)" stroke="white" stroke-opacity="0.06" stroke-width="1.44"/>
<rect x="1441" y="577.004" width="72" height="72" transform="rotate(180 1441 577.004)" stroke="white" stroke-opacity="0.06" stroke-width="1.44"/>
<rect x="1369" y="577.004" width="72" height="72" transform="rotate(180 1369 577.004)" stroke="white" stroke-opacity="0.06" stroke-width="1.44"/>
<rect x="1297" y="577.004" width="72" height="72" transform="rotate(180 1297 577.004)" stroke="white" stroke-opacity="0.06" stroke-width="1.44"/>
<rect x="1225" y="577.004" width="72" height="72" transform="rotate(180 1225 577.004)" stroke="white" stroke-opacity="0.06" stroke-width="1.44"/>
<rect x="1153" y="577.004" width="72" height="72" transform="rotate(180 1153 577.004)" stroke="white" stroke-opacity="0.06" stroke-width="1.44"/>
<rect x="1081" y="577.004" width="72" height="72" transform="rotate(180 1081 577.004)" stroke="white" stroke-opacity="0.06" stroke-width="1.44"/>
<rect x="1009" y="577.004" width="72" height="72" transform="rotate(180 1009 577.004)" stroke="white" stroke-opacity="0.06" stroke-width="1.44"/>
<rect x="937" y="577.004" width="72" height="72" transform="rotate(180 937 577.004)" stroke="white" stroke-opacity="0.06" stroke-width="1.44"/>
<rect x="865" y="577.004" width="72" height="72" transform="rotate(180 865 577.004)" stroke="white" stroke-opacity="0.06" stroke-width="1.44"/>
<rect x="793" y="577.004" width="72" height="72" transform="rotate(180 793 577.004)" stroke="white" stroke-opacity="0.06" stroke-width="1.44"/>
<rect x="721" y="577.004" width="72" height="72" transform="rotate(180 721 577.004)" stroke="white" stroke-opacity="0.06" stroke-width="1.44"/>
<rect x="649" y="577.004" width="72" height="72" transform="rotate(180 649 577.004)" stroke="white" stroke-opacity="0.06" stroke-width="1.44"/>
<rect x="577" y="577.004" width="72" height="72" transform="rotate(180 577 577.004)" stroke="white" stroke-opacity="0.06" stroke-width="1.44"/>
<rect x="505" y="577.004" width="72" height="72" transform="rotate(180 505 577.004)" stroke="white" stroke-opacity="0.06" stroke-width="1.44"/>
<rect x="433" y="577.004" width="72" height="72" transform="rotate(180 433 577.004)" stroke="white" stroke-opacity="0.06" stroke-width="1.44"/>
<rect x="361" y="577.004" width="72" height="72" transform="rotate(180 361 577.004)" stroke="white" stroke-opacity="0.06" stroke-width="1.44"/>
<rect x="289" y="577.004" width="72" height="72" transform="rotate(180 289 577.004)" stroke="white" stroke-opacity="0.06" stroke-width="1.44"/>
<rect x="217" y="577.004" width="72" height="72" transform="rotate(180 217 577.004)" stroke="white" stroke-opacity="0.06" stroke-width="1.44"/>
<rect x="145" y="577.004" width="72" height="72" transform="rotate(180 145 577.004)" stroke="white" stroke-opacity="0.06" stroke-width="1.44"/>
<rect x="73" y="577.004" width="72" height="72" transform="rotate(180 73 577.004)" stroke="white" stroke-opacity="0.06" stroke-width="1.44"/>
<rect x="1513" y="505.001" width="72" height="72" transform="rotate(180 1513 505.001)" stroke="white" stroke-opacity="0.06" stroke-width="1.44"/>
<rect x="1441" y="505.001" width="72" height="72" transform="rotate(180 1441 505.001)" stroke="white" stroke-opacity="0.06" stroke-width="1.44"/>
<rect x="1369" y="505.001" width="72" height="72" transform="rotate(180 1369 505.001)" stroke="white" stroke-opacity="0.06" stroke-width="1.44"/>
<rect x="1297" y="505.001" width="72" height="72" transform="rotate(180 1297 505.001)" fill="white" fill-opacity="0.05" stroke="white" stroke-opacity="0.06" stroke-width="1.44"/>
<rect x="1225" y="505.001" width="72" height="72" transform="rotate(180 1225 505.001)" stroke="white" stroke-opacity="0.06" stroke-width="1.44"/>
<rect x="1153" y="505.001" width="72" height="72" transform="rotate(180 1153 505.001)" stroke="white" stroke-opacity="0.06" stroke-width="1.44"/>
<rect x="1081" y="505.001" width="72" height="72" transform="rotate(180 1081 505.001)" stroke="white" stroke-opacity="0.06" stroke-width="1.44"/>
<rect x="1009" y="505.001" width="72" height="72" transform="rotate(180 1009 505.001)" stroke="white" stroke-opacity="0.06" stroke-width="1.44"/>
<rect x="937" y="505.001" width="72" height="72" transform="rotate(180 937 505.001)" stroke="white" stroke-opacity="0.06" stroke-width="1.44"/>
<rect x="865" y="505.001" width="72" height="72" transform="rotate(180 865 505.001)" stroke="white" stroke-opacity="0.06" stroke-width="1.44"/>
<rect x="793" y="505.001" width="72" height="72" transform="rotate(180 793 505.001)" stroke="white" stroke-opacity="0.06" stroke-width="1.44"/>
<rect x="721" y="505.001" width="72" height="72" transform="rotate(180 721 505.001)" stroke="white" stroke-opacity="0.06" stroke-width="1.44"/>
<rect x="577" y="505.001" width="72" height="72" transform="rotate(180 577 505.001)" stroke="white" stroke-opacity="0.06" stroke-width="1.44"/>
<rect x="505" y="505.001" width="72" height="72" transform="rotate(180 505 505.001)" stroke="white" stroke-opacity="0.06" stroke-width="1.44"/>
<rect x="433" y="505.001" width="72" height="72" transform="rotate(180 433 505.001)" stroke="white" stroke-opacity="0.06" stroke-width="1.44"/>
<rect x="361" y="505.001" width="72" height="72" transform="rotate(180 361 505.001)" stroke="white" stroke-opacity="0.06" stroke-width="1.44"/>
<rect x="289" y="505.001" width="72" height="72" transform="rotate(180 289 505.001)" stroke="white" stroke-opacity="0.06" stroke-width="1.44"/>
<rect x="217" y="505.001" width="72" height="72" transform="rotate(180 217 505.001)" stroke="white" stroke-opacity="0.06" stroke-width="1.44"/>
<rect x="145" y="505.001" width="72" height="72" transform="rotate(180 145 505.001)" stroke="white" stroke-opacity="0.06" stroke-width="1.44"/>
<rect x="73" y="505.001" width="72" height="72" transform="rotate(180 73 505.001)" stroke="white" stroke-opacity="0.06" stroke-width="1.44"/>
<rect x="1513" y="433.004" width="72" height="72" transform="rotate(180 1513 433.004)" stroke="white" stroke-opacity="0.06" stroke-width="1.44"/>
<rect x="1441" y="433.004" width="72" height="72" transform="rotate(180 1441 433.004)" stroke="white" stroke-opacity="0.06" stroke-width="1.44"/>
<rect x="1369" y="433.004" width="72" height="72" transform="rotate(180 1369 433.004)" stroke="white" stroke-opacity="0.06" stroke-width="1.44"/>
<rect x="1297" y="433.004" width="72" height="72" transform="rotate(180 1297 433.004)" stroke="white" stroke-opacity="0.06" stroke-width="1.44"/>
<rect x="1225" y="433.004" width="72" height="72" transform="rotate(180 1225 433.004)" stroke="white" stroke-opacity="0.06" stroke-width="1.44"/>
<rect x="1153" y="433.004" width="72" height="72" transform="rotate(180 1153 433.004)" stroke="white" stroke-opacity="0.06" stroke-width="1.44"/>
<rect x="1081" y="433.004" width="72" height="72" transform="rotate(180 1081 433.004)" stroke="white" stroke-opacity="0.06" stroke-width="1.44"/>
<rect x="1009" y="433.004" width="72" height="72" transform="rotate(180 1009 433.004)" stroke="white" stroke-opacity="0.06" stroke-width="1.44"/>
<rect x="937" y="433.004" width="72" height="72" transform="rotate(180 937 433.004)" stroke="white" stroke-opacity="0.06" stroke-width="1.44"/>
<rect x="865" y="433.004" width="72" height="72" transform="rotate(180 865 433.004)" stroke="white" stroke-opacity="0.06" stroke-width="1.44"/>
<rect x="793" y="433.004" width="72" height="72" transform="rotate(180 793 433.004)" stroke="white" stroke-opacity="0.06" stroke-width="1.44"/>
<rect x="721" y="433.004" width="72" height="72" transform="rotate(180 721 433.004)" stroke="white" stroke-opacity="0.06" stroke-width="1.44"/>
<rect x="649" y="433.004" width="72" height="72" transform="rotate(180 649 433.004)" stroke="white" stroke-opacity="0.06" stroke-width="1.44"/>
<rect x="577" y="433.004" width="72" height="72" transform="rotate(180 577 433.004)" stroke="white" stroke-opacity="0.06" stroke-width="1.44"/>
<rect x="505" y="433.004" width="72" height="72" transform="rotate(180 505 433.004)" stroke="white" stroke-opacity="0.06" stroke-width="1.44"/>
<rect x="433" y="433.004" width="72" height="72" transform="rotate(180 433 433.004)" stroke="white" stroke-opacity="0.06" stroke-width="1.44"/>
<rect x="361" y="433.004" width="72" height="72" transform="rotate(180 361 433.004)" stroke="white" stroke-opacity="0.06" stroke-width="1.44"/>
<rect x="289" y="433.004" width="72" height="72" transform="rotate(180 289 433.004)" stroke="white" stroke-opacity="0.06" stroke-width="1.44"/>
<rect x="217" y="433.004" width="72" height="72" transform="rotate(180 217 433.004)" fill="white" fill-opacity="0.05" stroke="white" stroke-opacity="0.06" stroke-width="1.44"/>
<rect x="145" y="433.004" width="72" height="72" transform="rotate(180 145 433.004)" stroke="white" stroke-opacity="0.06" stroke-width="1.44"/>
<rect x="73" y="433.004" width="72" height="72" transform="rotate(180 73 433.004)" stroke="white" stroke-opacity="0.06" stroke-width="1.44"/>
<rect x="1513" y="361" width="72" height="72" transform="rotate(180 1513 361)" stroke="white" stroke-opacity="0.06" stroke-width="1.44"/>
<rect x="1441" y="361" width="72" height="72" transform="rotate(180 1441 361)" stroke="white" stroke-opacity="0.06" stroke-width="1.44"/>
<rect x="1369" y="361" width="72" height="72" transform="rotate(180 1369 361)" stroke="white" stroke-opacity="0.06" stroke-width="1.44"/>
<rect x="1297" y="361" width="72" height="72" transform="rotate(180 1297 361)" stroke="white" stroke-opacity="0.06" stroke-width="1.44"/>
<rect x="1225" y="361" width="72" height="72" transform="rotate(180 1225 361)" stroke="white" stroke-opacity="0.06" stroke-width="1.44"/>
<rect x="1153" y="361" width="72" height="72" transform="rotate(180 1153 361)" stroke="white" stroke-opacity="0.06" stroke-width="1.44"/>
<rect x="1081" y="361" width="72" height="72" transform="rotate(180 1081 361)" stroke="white" stroke-opacity="0.06" stroke-width="1.44"/>
<rect x="1009" y="361" width="72" height="72" transform="rotate(180 1009 361)" stroke="white" stroke-opacity="0.06" stroke-width="1.44"/>
<rect x="937" y="361" width="72" height="72" transform="rotate(180 937 361)" stroke="white" stroke-opacity="0.06" stroke-width="1.44"/>
<rect x="865" y="361" width="72" height="72" transform="rotate(180 865 361)" stroke="white" stroke-opacity="0.06" stroke-width="1.44"/>
<rect x="793" y="361" width="72" height="72" transform="rotate(180 793 361)" stroke="white" stroke-opacity="0.06" stroke-width="1.44"/>
<rect x="721" y="361" width="72" height="72" transform="rotate(180 721 361)" stroke="white" stroke-opacity="0.06" stroke-width="1.44"/>
<rect x="649" y="361" width="72" height="72" transform="rotate(180 649 361)" stroke="white" stroke-opacity="0.06" stroke-width="1.44"/>
<rect x="577" y="361" width="72" height="72" transform="rotate(180 577 361)" stroke="white" stroke-opacity="0.06" stroke-width="1.44"/>
<rect x="505" y="361" width="72" height="72" transform="rotate(180 505 361)" stroke="white" stroke-opacity="0.06" stroke-width="1.44"/>
<rect x="433" y="361" width="72" height="72" transform="rotate(180 433 361)" stroke="white" stroke-opacity="0.06" stroke-width="1.44"/>
<rect x="361" y="361" width="72" height="72" transform="rotate(180 361 361)" stroke="white" stroke-opacity="0.06" stroke-width="1.44"/>
<rect x="289" y="361" width="72" height="72" transform="rotate(180 289 361)" stroke="white" stroke-opacity="0.06" stroke-width="1.44"/>
<rect x="217" y="361" width="72" height="72" transform="rotate(180 217 361)" stroke="white" stroke-opacity="0.06" stroke-width="1.44"/>
<rect x="145" y="361" width="72" height="72" transform="rotate(180 145 361)" stroke="white" stroke-opacity="0.06" stroke-width="1.44"/>
<rect x="73" y="361" width="72" height="72" transform="rotate(180 73 361)" stroke="white" stroke-opacity="0.06" stroke-width="1.44"/>
<rect x="1513" y="289.004" width="72" height="72" transform="rotate(180 1513 289.004)" stroke="white" stroke-opacity="0.06" stroke-width="1.44"/>
<rect x="1441" y="289.004" width="72" height="72" transform="rotate(180 1441 289.004)" stroke="white" stroke-opacity="0.06" stroke-width="1.44"/>
<rect x="1369" y="289.004" width="72" height="72" transform="rotate(180 1369 289.004)" stroke="white" stroke-opacity="0.06" stroke-width="1.44"/>
<rect x="1297" y="289.004" width="72" height="72" transform="rotate(180 1297 289.004)" stroke="white" stroke-opacity="0.06" stroke-width="1.44"/>
<rect x="1225" y="289.004" width="72" height="72" transform="rotate(180 1225 289.004)" stroke="white" stroke-opacity="0.06" stroke-width="1.44"/>
<rect x="1153" y="289.004" width="72" height="72" transform="rotate(180 1153 289.004)" stroke="white" stroke-opacity="0.06" stroke-width="1.44"/>
<rect x="1081" y="289.004" width="72" height="72" transform="rotate(180 1081 289.004)" stroke="white" stroke-opacity="0.06" stroke-width="1.44"/>
<rect x="1009" y="289.004" width="72" height="72" transform="rotate(180 1009 289.004)" stroke="white" stroke-opacity="0.06" stroke-width="1.44"/>
<rect x="937" y="289.004" width="72" height="72" transform="rotate(180 937 289.004)" fill="white" fill-opacity="0.05" stroke="white" stroke-opacity="0.06" stroke-width="1.44"/>
<rect x="865" y="289.004" width="72" height="72" transform="rotate(180 865 289.004)" stroke="white" stroke-opacity="0.06" stroke-width="1.44"/>
<rect x="793" y="289.004" width="72" height="72" transform="rotate(180 793 289.004)" stroke="white" stroke-opacity="0.06" stroke-width="1.44"/>
<rect x="721" y="289.004" width="72" height="72" transform="rotate(180 721 289.004)" stroke="white" stroke-opacity="0.06" stroke-width="1.44"/>
<rect x="649" y="289.004" width="72" height="72" transform="rotate(180 649 289.004)" stroke="white" stroke-opacity="0.06" stroke-width="1.44"/>
<rect x="577" y="289.004" width="72" height="72" transform="rotate(180 577 289.004)" stroke="white" stroke-opacity="0.06" stroke-width="1.44"/>
<rect x="505" y="289.004" width="72" height="72" transform="rotate(180 505 289.004)" stroke="white" stroke-opacity="0.06" stroke-width="1.44"/>
<rect x="433" y="289.004" width="72" height="72" transform="rotate(180 433 289.004)" stroke="white" stroke-opacity="0.06" stroke-width="1.44"/>
<rect x="361" y="289.004" width="72" height="72" transform="rotate(180 361 289.004)" stroke="white" stroke-opacity="0.06" stroke-width="1.44"/>
<rect x="289" y="289.004" width="72" height="72" transform="rotate(180 289 289.004)" stroke="white" stroke-opacity="0.06" stroke-width="1.44"/>
<rect x="217" y="289.004" width="72" height="72" transform="rotate(180 217 289.004)" stroke="white" stroke-opacity="0.06" stroke-width="1.44"/>
<rect x="145" y="289.004" width="72" height="72" transform="rotate(180 145 289.004)" stroke="white" stroke-opacity="0.06" stroke-width="1.44"/>
<rect x="73" y="289.004" width="72" height="72" transform="rotate(180 73 289.004)" stroke="white" stroke-opacity="0.06" stroke-width="1.44"/>
<rect x="1513" y="217" width="72" height="72" transform="rotate(180 1513 217)" stroke="white" stroke-opacity="0.06" stroke-width="1.44"/>
<rect x="1441" y="217" width="72" height="72" transform="rotate(180 1441 217)" stroke="white" stroke-opacity="0.06" stroke-width="1.44"/>
<rect x="1369" y="217" width="72" height="72" transform="rotate(180 1369 217)" stroke="white" stroke-opacity="0.06" stroke-width="1.44"/>
<rect x="1297" y="217" width="72" height="72" transform="rotate(180 1297 217)" stroke="white" stroke-opacity="0.06" stroke-width="1.44"/>
<rect x="1225" y="217" width="72" height="72" transform="rotate(180 1225 217)" fill="white" fill-opacity="0.05" stroke="white" stroke-opacity="0.06" stroke-width="1.44"/>
<rect x="1153" y="217" width="72" height="72" transform="rotate(180 1153 217)" stroke="white" stroke-opacity="0.06" stroke-width="1.44"/>
<rect x="1081" y="217" width="72" height="72" transform="rotate(180 1081 217)" stroke="white" stroke-opacity="0.06" stroke-width="1.44"/>
<rect x="1009" y="217" width="72" height="72" transform="rotate(180 1009 217)" stroke="white" stroke-opacity="0.06" stroke-width="1.44"/>
<rect x="937" y="217" width="72" height="72" transform="rotate(180 937 217)" stroke="white" stroke-opacity="0.06" stroke-width="1.44"/>
<rect x="865" y="217" width="72" height="72" transform="rotate(180 865 217)" stroke="white" stroke-opacity="0.06" stroke-width="1.44"/>
<rect x="793" y="217" width="72" height="72" transform="rotate(180 793 217)" stroke="white" stroke-opacity="0.06" stroke-width="1.44"/>
<rect x="721" y="217" width="72" height="72" transform="rotate(180 721 217)" stroke="white" stroke-opacity="0.06" stroke-width="1.44"/>
<rect x="649" y="217" width="72" height="72" transform="rotate(180 649 217)" stroke="white" stroke-opacity="0.06" stroke-width="1.44"/>
<rect x="577" y="217" width="72" height="72" transform="rotate(180 577 217)" stroke="white" stroke-opacity="0.06" stroke-width="1.44"/>
<rect x="505" y="217" width="72" height="72" transform="rotate(180 505 217)" stroke="white" stroke-opacity="0.06" stroke-width="1.44"/>
<rect x="433" y="217" width="72" height="72" transform="rotate(180 433 217)" stroke="white" stroke-opacity="0.06" stroke-width="1.44"/>
<rect x="361" y="217" width="72" height="72" transform="rotate(180 361 217)" stroke="white" stroke-opacity="0.06" stroke-width="1.44"/>
<rect x="289" y="217" width="72" height="72" transform="rotate(180 289 217)" fill="#D9D9D9" fill-opacity="0.05" stroke="white" stroke-opacity="0.06" stroke-width="1.44"/>
<rect x="217" y="217" width="72" height="72" transform="rotate(180 217 217)" stroke="white" stroke-opacity="0.06" stroke-width="1.44"/>
<rect x="145" y="217" width="72" height="72" transform="rotate(180 145 217)" stroke="white" stroke-opacity="0.06" stroke-width="1.44"/>
<rect x="73" y="217" width="72" height="72" transform="rotate(180 73 217)" stroke="white" stroke-opacity="0.06" stroke-width="1.44"/>
<rect x="1513" y="145.002" width="72" height="72" transform="rotate(180 1513 145.002)" stroke="white" stroke-opacity="0.06" stroke-width="1.44"/>
<rect x="1441" y="145.002" width="72" height="72" transform="rotate(180 1441 145.002)" stroke="white" stroke-opacity="0.06" stroke-width="1.44"/>
<rect x="1369" y="145.002" width="72" height="72" transform="rotate(180 1369 145.002)" stroke="white" stroke-opacity="0.06" stroke-width="1.44"/>
<rect x="1297" y="145.002" width="72" height="72" transform="rotate(180 1297 145.002)" stroke="white" stroke-opacity="0.06" stroke-width="1.44"/>
<rect x="1225" y="145.002" width="72" height="72" transform="rotate(180 1225 145.002)" stroke="white" stroke-opacity="0.06" stroke-width="1.44"/>
<rect x="1153" y="145.002" width="72" height="72" transform="rotate(180 1153 145.002)" stroke="white" stroke-opacity="0.06" stroke-width="1.44"/>
<rect x="1081" y="145.002" width="72" height="72" transform="rotate(180 1081 145.002)" stroke="white" stroke-opacity="0.06" stroke-width="1.44"/>
<rect x="1009" y="145.002" width="72" height="72" transform="rotate(180 1009 145.002)" stroke="white" stroke-opacity="0.06" stroke-width="1.44"/>
<rect x="937" y="145.002" width="72" height="72" transform="rotate(180 937 145.002)" stroke="white" stroke-opacity="0.06" stroke-width="1.44"/>
<rect x="865" y="145.002" width="72" height="72" transform="rotate(180 865 145.002)" stroke="white" stroke-opacity="0.06" stroke-width="1.44"/>
<rect x="793" y="145.002" width="72" height="72" transform="rotate(180 793 145.002)" stroke="white" stroke-opacity="0.06" stroke-width="1.44"/>
<rect x="721" y="145.002" width="72" height="72" transform="rotate(180 721 145.002)" stroke="white" stroke-opacity="0.06" stroke-width="1.44"/>
<rect x="649" y="145.002" width="72" height="72" transform="rotate(180 649 145.002)" stroke="white" stroke-opacity="0.06" stroke-width="1.44"/>
<rect x="577" y="145.002" width="72" height="72" transform="rotate(180 577 145.002)" stroke="white" stroke-opacity="0.06" stroke-width="1.44"/>
<rect x="505" y="145.002" width="72" height="72" transform="rotate(180 505 145.002)" stroke="white" stroke-opacity="0.06" stroke-width="1.44"/>
<rect x="433" y="145.002" width="72" height="72" transform="rotate(180 433 145.002)" stroke="white" stroke-opacity="0.06" stroke-width="1.44"/>
<rect x="361" y="145.002" width="72" height="72" transform="rotate(180 361 145.002)" stroke="white" stroke-opacity="0.06" stroke-width="1.44"/>
<rect x="289" y="145.002" width="72" height="72" transform="rotate(180 289 145.002)" stroke="white" stroke-opacity="0.06" stroke-width="1.44"/>
<rect x="217" y="145.002" width="72" height="72" transform="rotate(180 217 145.002)" stroke="white" stroke-opacity="0.06" stroke-width="1.44"/>
<rect x="145" y="145.002" width="72" height="72" transform="rotate(180 145 145.002)" stroke="white" stroke-opacity="0.06" stroke-width="1.44"/>
<rect x="73" y="145.002" width="72" height="72" transform="rotate(180 73 145.002)" stroke="white" stroke-opacity="0.06" stroke-width="1.44"/>
<rect x="1513" y="73" width="72" height="72" transform="rotate(180 1513 73)" stroke="white" stroke-opacity="0.06" stroke-width="1.44"/>
<rect x="1441" y="73" width="72" height="72" transform="rotate(180 1441 73)" stroke="white" stroke-opacity="0.06" stroke-width="1.44"/>
<rect x="1369" y="73" width="72" height="72" transform="rotate(180 1369 73)" stroke="white" stroke-opacity="0.06" stroke-width="1.44"/>
<rect x="1297" y="73" width="72" height="72" transform="rotate(180 1297 73)" stroke="white" stroke-opacity="0.06" stroke-width="1.44"/>
<rect x="1225" y="73" width="72" height="72" transform="rotate(180 1225 73)" stroke="white" stroke-opacity="0.06" stroke-width="1.44"/>
<rect x="1153" y="73" width="72" height="72" transform="rotate(180 1153 73)" stroke="white" stroke-opacity="0.06" stroke-width="1.44"/>
<rect x="1081" y="73" width="72" height="72" transform="rotate(180 1081 73)" stroke="white" stroke-opacity="0.06" stroke-width="1.44"/>
<rect x="1009" y="73" width="72" height="72" transform="rotate(180 1009 73)" stroke="white" stroke-opacity="0.06" stroke-width="1.44"/>
<rect x="937" y="73" width="72" height="72" transform="rotate(180 937 73)" stroke="white" stroke-opacity="0.06" stroke-width="1.44"/>
<rect x="865" y="73" width="72" height="72" transform="rotate(180 865 73)" stroke="white" stroke-opacity="0.06" stroke-width="1.44"/>
<rect x="793" y="73" width="72" height="72" transform="rotate(180 793 73)" stroke="white" stroke-opacity="0.06" stroke-width="1.44"/>
<rect x="721" y="73" width="72" height="72" transform="rotate(180 721 73)" stroke="white" stroke-opacity="0.06" stroke-width="1.44"/>
<rect x="649" y="73" width="72" height="72" transform="rotate(180 649 73)" stroke="white" stroke-opacity="0.06" stroke-width="1.44"/>
<rect x="577" y="73" width="72" height="72" transform="rotate(180 577 73)" stroke="white" stroke-opacity="0.06" stroke-width="1.44"/>
<rect x="505" y="73" width="72" height="72" transform="rotate(180 505 73)" stroke="white" stroke-opacity="0.06" stroke-width="1.44"/>
<rect x="433" y="73" width="72" height="72" transform="rotate(180 433 73)" stroke="white" stroke-opacity="0.06" stroke-width="1.44"/>
<rect x="361" y="73" width="72" height="72" transform="rotate(180 361 73)" stroke="white" stroke-opacity="0.06" stroke-width="1.44"/>
<rect x="289" y="73" width="72" height="72" transform="rotate(180 289 73)" stroke="white" stroke-opacity="0.06" stroke-width="1.44"/>
<rect x="217" y="73" width="72" height="72" transform="rotate(180 217 73)" stroke="white" stroke-opacity="0.06" stroke-width="1.44"/>
<rect x="145" y="73" width="72" height="72" transform="rotate(180 145 73)" stroke="white" stroke-opacity="0.06" stroke-width="1.44"/>
<rect x="73" y="73" width="72" height="72" transform="rotate(180 73 73)" stroke="white" stroke-opacity="0.06" stroke-width="1.44"/>
</g>
</svg>
